<?xml version="1.0" encoding="utf-8"?>
<!-- Generator: Adobe Illustrator 27.0.0, SVG Export Plug-In . SVG Version: 6.00 Build 0)  -->
<svg version="1.1" id="Capa_1" xmlns="http://www.w3.org/2000/svg" xmlns:xlink="http://www.w3.org/1999/xlink" x="0px" y="0px"
	 viewBox="0 0 16 16" style="enable-background:new 0 0 16 16;" xml:space="preserve">
<style type="text/css">
	.st0{fill:#1C3661;}
	.st1{fill:#FFFFFF;}
</style>
<g>
	<path class="st0" d="M5.95,1.71c0-0.02,0-0.03,0.01-0.05C5.95,1.68,5.95,1.7,5.95,1.71z"/>
	<path class="st0" d="M5.96,1.67c0-0.01,0-0.01,0-0.02C5.96,1.65,5.96,1.66,5.96,1.67z"/>
	<path class="st0" d="M15.45,6.84c-0.12-0.36-0.46-0.63-0.97-0.8c0.17,0.13,0.28,0.27,0.34,0.45c0.22,0.67-0.46,1.56-1.72,2.45
		C13,8.7,12.88,8.48,12.73,8.26c-1.05-1.5-3.01-2.99-3.81-3.57h0C8.9,4.68,8.89,4.67,8.87,4.66c0.1-0.16,0.07-0.39-0.05-0.55
		c0-0.01,0-0.01,0.01-0.02c0.02-0.09-0.01-0.19-0.07-0.26C8.72,3.79,8.67,3.76,8.61,3.73c0.01-0.02,0.02-0.04,0.02-0.06
		c0.01-0.03,0.03-0.07,0.04-0.1c0.12-0.24,0.33-0.43,0.54-0.6c0.04-0.03,0.08-0.06,0.12-0.1c0.01-0.01,0.02-0.01,0.03-0.02
		c0.04-0.03,0.08-0.07,0.12-0.1C9.49,2.75,9.5,2.74,9.51,2.73C9.55,2.7,9.59,2.66,9.62,2.62C9.63,2.62,9.63,2.61,9.64,2.6
		c0.04-0.04,0.07-0.08,0.1-0.13c0,0,0,0,0,0h0C9.76,2.45,9.78,2.42,9.8,2.39c0.14-0.23,0.19-0.54,0.04-0.77
		C9.76,1.41,9.4,1.4,9.18,1.6c-0.22,0.2-0.32,0.32-1.1-0.23C7.3,0.82,7.17,1.27,6.72,1.6C6.28,1.93,6.05,1.19,5.96,1.64
		C5.95,1.68,5.95,1.72,5.95,1.75c0-0.01,0-0.03,0-0.04C5.9,1.97,5.98,2.23,6.13,2.44c0.17,0.23,0.4,0.41,0.63,0.58
		C7,3.2,7.23,3.38,7.41,3.61c0.04,0.05,0.08,0.1,0.11,0.16C7.53,3.78,7.53,3.8,7.54,3.81c0,0-0.01,0-0.01,0.01c0,0,0,0-0.01,0
		C7.51,3.83,7.5,3.84,7.48,3.85c0,0-0.01,0.01-0.01,0.01C7.46,3.87,7.45,3.88,7.44,3.89c0,0-0.01,0.01-0.01,0.01
		C7.42,3.91,7.41,3.93,7.4,3.94c0,0,0,0,0,0.01C7.39,3.96,7.38,3.97,7.38,3.99c0,0,0,0.01,0,0.01c0,0.01-0.01,0.03-0.01,0.04
		c0,0,0,0.01,0,0.01c0,0.02,0,0.03,0,0.05c0,0,0,0.01,0,0.01c0,0.01,0,0.03,0.01,0.05c0,0.01,0,0.01,0,0.02
		C7.38,4.2,7.39,4.22,7.4,4.24c0,0,0,0,0,0c0,0.01,0.01,0.02,0.02,0.03C7.41,4.28,7.4,4.29,7.39,4.31c0,0.01-0.01,0.01-0.01,0.02
		C7.36,4.35,7.35,4.37,7.34,4.4c0,0.01-0.01,0.01-0.01,0.02C7.32,4.45,7.31,4.48,7.3,4.51c-0.01,0.04,0,0.08,0.01,0.11c0,0,0,0,0,0
		C7.3,4.63,7.29,4.64,7.28,4.65C7.27,4.65,7.26,4.66,7.25,4.67C7.24,4.68,7.22,4.69,7.21,4.7C7.2,4.71,7.19,4.72,7.17,4.73
		C7.16,4.75,7.15,4.76,7.13,4.77C7.12,4.78,7.1,4.79,7.09,4.81C7.07,4.82,7.06,4.83,7.04,4.85C7.02,4.86,7.01,4.88,6.99,4.89
		C6.97,4.91,6.95,4.92,6.93,4.94C6.93,4.95,6.92,4.96,6.91,4.96l0,0C6.83,5.03,6.74,5.11,6.65,5.2c0,0,0,0,0,0
		C6.64,5.2,6.64,5.21,6.63,5.22c-0.05,0.05-0.1,0.1-0.16,0.15C6.46,5.37,6.45,5.38,6.44,5.39C6.38,5.45,6.31,5.51,6.25,5.58
		C6.23,5.59,6.21,5.61,6.2,5.63C6.14,5.68,6.09,5.73,6.03,5.79C6.01,5.81,6,5.82,5.98,5.84C5.91,5.91,5.84,5.99,5.76,6.06
		C5.75,6.08,5.74,6.09,5.73,6.1C5.67,6.16,5.6,6.23,5.54,6.3C5.52,6.32,5.5,6.35,5.48,6.37c-0.07,0.07-0.13,0.15-0.2,0.22
		C5.27,6.6,5.26,6.61,5.25,6.62C5.17,6.71,5.1,6.8,5.02,6.88C5.01,6.91,4.99,6.93,4.97,6.96C4.91,7.03,4.85,7.1,4.79,7.17
		C4.77,7.2,4.75,7.22,4.73,7.24C4.66,7.34,4.59,7.43,4.52,7.53C4.5,7.54,4.49,7.56,4.48,7.58C4.42,7.66,4.36,7.74,4.3,7.82
		C4.28,7.85,4.26,7.88,4.24,7.91C4.18,8,4.12,8.1,4.06,8.19C4.05,8.2,4.05,8.21,4.04,8.21c-0.06,0.1-0.13,0.2-0.19,0.31
		C3.84,8.55,3.82,8.58,3.81,8.61C3.76,8.69,3.71,8.78,3.67,8.86C3.65,8.88,3.64,8.91,3.63,8.93C3.57,9.04,3.52,9.15,3.48,9.25
		C3.47,9.28,3.46,9.3,3.45,9.32C3.41,9.41,3.37,9.5,3.34,9.58C3.33,9.61,3.31,9.64,3.3,9.67C3.26,9.78,3.23,9.89,3.19,10
		c-0.22,0.74-0.06,1.45,0.34,2.07c-1.5,0.03-2.54-0.28-2.76-0.94c-0.06-0.17-0.05-0.36,0.01-0.56c-0.3,0.44-0.42,0.86-0.3,1.22
		c0.46,1.39,4.18,1.41,8.31,0.04c0.94-0.31,1.82-0.67,2.62-1.05c-1.92,1.14-4.16,2.09-6.71,2.44c1.44,0.97,3.58,1.39,5.34,0.76
		c0.12-0.04,0.24-0.09,0.36-0.14c0.03-0.01,0.07-0.03,0.1-0.04c0.09-0.04,0.18-0.08,0.27-0.12c0.03-0.01,0.05-0.02,0.08-0.04
		c0.11-0.05,0.21-0.11,0.31-0.17c0.02-0.01,0.04-0.02,0.06-0.04c0.08-0.05,0.16-0.1,0.24-0.15c0.03-0.02,0.05-0.03,0.08-0.05
		c0.08-0.06,0.17-0.12,0.24-0.18c0.01-0.01,0.02-0.01,0.02-0.02c0.09-0.07,0.17-0.13,0.24-0.2c0.02-0.02,0.04-0.04,0.06-0.05
		c0.06-0.06,0.12-0.11,0.18-0.17c0.02-0.02,0.03-0.03,0.05-0.05c0.07-0.07,0.14-0.15,0.2-0.22c0.01-0.01,0.01-0.02,0.02-0.03
		c0.05-0.07,0.11-0.13,0.15-0.2c0.01-0.02,0.03-0.04,0.04-0.06c0.05-0.07,0.09-0.14,0.13-0.21c0.01-0.01,0.01-0.02,0.02-0.03
		c0.05-0.08,0.09-0.16,0.13-0.24c0.01-0.02,0.01-0.03,0.02-0.05c0.03-0.07,0.06-0.14,0.09-0.21c0.01-0.02,0.01-0.04,0.02-0.05
		c0.06-0.17,0.11-0.34,0.14-0.51c0-0.02,0.01-0.04,0.01-0.06c0.01-0.08,0.02-0.15,0.03-0.23c0-0.01,0-0.02,0-0.03
		c0.01-0.09,0.01-0.17,0.01-0.26c0,0,0-0.01,0-0.01c0,0,0,0,0,0c0-0.15-0.01-0.3-0.03-0.45C14.86,8.69,15.71,7.63,15.45,6.84z"/>
</g>
<g>
	<g>
		<path class="st1" d="M7.2,10.11l-0.17,0.87L6.5,10.85l0.3-0.92C6.72,9.88,6.67,9.81,6.62,9.73C6.58,9.66,6.54,9.57,6.51,9.46
			L6.4,9.86L5.95,9.69L6.34,8.5l0.38,0.12c-0.01,0.1-0.01,0.2,0,0.31c0.01,0.11,0.03,0.21,0.06,0.31c0.03,0.1,0.09,0.18,0.15,0.26
			C7.01,9.57,7.1,9.62,7.21,9.65C7.4,9.7,7.53,9.69,7.62,9.64c0.09-0.06,0.16-0.17,0.2-0.34C7.85,9.2,7.85,9.12,7.84,9.05
			c-0.02-0.07-0.04-0.14-0.09-0.2c-0.04-0.06-0.1-0.11-0.16-0.16c-0.07-0.05-0.14-0.1-0.21-0.15C7.25,8.45,7.13,8.37,7.01,8.29
			C6.89,8.21,6.8,8.12,6.72,8.03c-0.08-0.1-0.13-0.2-0.16-0.33C6.53,7.58,6.54,7.43,6.59,7.26c0.07-0.27,0.19-0.46,0.38-0.57
			c0.18-0.11,0.41-0.15,0.67-0.1l0.17-0.9l0.53,0.13L8.04,6.72c0.08,0.05,0.14,0.12,0.19,0.2C8.27,7,8.31,7.11,8.35,7.23L8.47,6.8
			l0.46,0.12l-0.4,1.33L8.12,8.13c0.01-0.1,0.01-0.21,0.01-0.32c0-0.11-0.01-0.22-0.04-0.31C8.06,7.39,8.01,7.3,7.94,7.23
			C7.88,7.15,7.78,7.1,7.66,7.07C7.51,7.03,7.38,7.04,7.28,7.1c-0.1,0.06-0.16,0.16-0.2,0.31c-0.03,0.1-0.03,0.19-0.01,0.26
			c0.02,0.07,0.05,0.13,0.1,0.18c0.05,0.05,0.11,0.1,0.18,0.15c0.07,0.05,0.14,0.09,0.22,0.15C7.69,8.22,7.8,8.3,7.9,8.39
			C8.01,8.47,8.1,8.56,8.17,8.66c0.07,0.1,0.12,0.21,0.15,0.33C8.34,9.11,8.33,9.25,8.3,9.4c-0.07,0.28-0.2,0.48-0.38,0.61
			C7.74,10.14,7.5,10.17,7.2,10.11z"/>
	</g>
</g>
</svg>
